<svg width="1473" height="1598" viewBox="0 0 1473 1598" fill="none" xmlns="http://www.w3.org/2000/svg">
<path d="M675.922 0H676.453H800.798H801.329V1.77951H805.58V3.55902H806.112H834.806H835.338V5.33853H839.589V7.11804H840.12H849.685H850.216V8.89755H850.748H879.443H879.974V10.6771H884.225V12.4566H884.757H898.573H899.104V14.2361H899.635H904.949H905.481V16.0156H906.012H911.326H911.857V17.7951H912.389H921.953H922.485V19.5746H926.736V21.3541H927.267H936.832H937.364V23.1336H941.615V24.9131H942.146H949.586H950.117V26.6927H950.648H955.962H956.494V28.4722H960.745V30.2517H961.276H972.966H973.498V32.0312H977.749V33.8107H978.28H983.594H984.126V35.5902H984.657H989.971H990.502V37.3697H992.628V39.1492H993.159H1000.6H1001.13V40.9287H1003.26V42.7082H1003.79H1011.23H1011.76V44.4878H1016.01V46.2673H1018.13V48.0468H1018.67H1026.11H1026.64V49.8263H1030.89V51.6058H1031.42H1036.73H1037.26V53.3853H1041.52V55.1648H1043.64V56.9443H1044.17H1049.49H1050.02V58.7238H1052.14V60.5033H1052.67H1057.99H1058.52V62.2829H1062.77V64.0624H1063.3H1068.62H1069.15V65.8419H1073.4V67.6214H1075.52V69.4009H1076.06H1081.37H1081.9V71.1804H1084.03V72.9599C1084.56 72.9599 1085.8 72.9599 1087.75 72.9599H1088.28V74.7394H1092.53V76.5189H1094.65V78.2984H1098.9V80.078H1101.03V81.8575H1101.56H1106.88H1107.41V83.637H1111.66V85.4165H1113.78V87.196H1118.03V88.9755H1120.16V90.755C1120.69 90.755 1121.93 90.755 1123.88 90.755H1124.41V92.5345H1128.66V94.314H1130.79V96.0935H1135.04V97.8731H1137.16V99.6526H1141.42V101.432H1143.54V103.212H1147.79V104.991H1149.92V106.771H1154.17V108.55H1156.29V110.33H1160.55V112.109H1162.67V113.889H1164.8V115.668H1166.92V117.448H1171.17V119.227H1173.3V121.007H1177.55V122.786H1179.68V124.566H1181.8V126.345H1186.05V128.125H1188.18V129.904H1190.3V131.684H1194.55V133.463H1196.68V135.243H1198.81V137.022H1200.93V138.802H1203.06V140.581H1205.18V142.361H1209.43V144.14H1211.56V145.92H1213.68V147.699H1215.81V149.479H1217.94V151.258H1220.06V153.038H1224.31V154.817H1226.44V156.597H1228.56V158.376H1230.69V160.156H1232.81V161.935H1234.94V163.715H1237.06V165.494H1239.19V167.274H1241.32V169.053H1243.44V170.833H1245.57V172.612H1247.69V174.392H1249.82V176.171H1251.94V177.951H1254.07V179.731H1256.19V181.51H1260.45V185.069H1262.57V186.849H1264.7V188.628H1266.82V190.408H1268.95V192.187H1271.07V193.967H1273.2V195.746H1275.32V197.526H1277.45V199.305H1279.58V201.085H1281.7V202.864H1283.83V204.644H1285.95V208.203H1288.08V209.982H1290.2V211.762H1292.33V213.541H1294.45V215.321H1296.58V217.1H1298.71V220.659H1300.83V222.439H1302.96V224.218H1305.08V225.998H1307.21V227.777H1309.33V231.336H1311.46V233.116H1313.58V234.895H1315.71V238.454H1317.84V240.234H1319.96V242.013H1322.09V243.793H1324.21V247.352H1326.34V249.131H1328.46V250.911H1330.59V254.47H1332.71V256.249H1334.84V259.808H1336.97V261.588H1339.09V263.367H1341.22V266.927H1343.34V268.706H1345.47V272.265H1347.59V274.045H1349.72C1349.72 274.489 1349.72 275.527 1349.72 277.159V277.604H1351.84V281.163H1353.97V282.942H1356.1V286.501H1358.22V288.281H1360.35V291.84H1362.47V293.619H1364.6V297.178H1366.72C1366.72 297.623 1366.72 298.661 1366.72 300.292V300.737H1368.85V304.296H1370.97V306.076H1373.1V309.635H1375.23V311.414H1377.35V314.973H1379.48V318.532H1381.6V322.091H1383.73V325.65H1385.85V329.209H1387.98V332.768H1390.1V336.327H1392.23V339.886H1394.36V343.445H1396.48C1396.48 343.89 1396.48 344.928 1396.48 346.56V347.004H1398.61V350.563H1400.73V352.343H1402.86V352.788V357.237V357.682H1404.98V361.241H1407.11V364.8H1409.23V368.359H1411.36V368.803V373.252V373.697H1413.48V377.256H1415.61V380.815H1417.74V381.26V385.709V386.154H1419.86V389.713H1421.99V390.158V394.606V395.051H1424.11V398.61H1426.24V399.055V403.504V403.949H1428.36V407.508H1430.49V407.953V412.401V412.846H1432.61V413.291V417.74V418.185H1434.74V418.63V423.079V423.523H1436.87V423.968V428.417V428.862H1438.99V429.307V433.756V434.2H1441.12V434.645V440.874V441.318H1443.24V441.763V446.212V446.657H1445.37V447.102V453.33V453.775H1447.49V454.22V458.669V459.114H1449.62V459.558V465.787V466.232H1451.74V466.677V474.684V475.129H1453.87V475.574V480.023V480.468H1456V480.913V490.7V491.145H1458.12V491.59V497.818V498.263H1460.25V498.708V506.715V507.16H1462.37V507.605V517.393V517.837H1464.5V518.282V528.07V528.514H1466.62V528.959V544.085V544.53H1468.75V544.975V558.321V558.766H1470.87V559.211V585.014V585.459H1473V585.904V1284.36V1284.81H1470.87V1285.25V1302.16V1302.6H1468.75V1303.05V1309.27V1309.72H1466.62V1310.16V1318.17V1318.62H1464.5V1319.06V1323.51V1323.96H1462.37V1324.4V1330.63V1331.07H1460.25V1331.52V1335.97V1336.41H1458.12V1339.97H1456V1340.42V1344.86V1345.31H1453.87V1348.87H1451.74V1352.43H1449.62V1355.99H1447.49V1359.55H1445.37V1363.1H1443.24C1443.24 1363.55 1443.24 1364.59 1443.24 1366.22V1366.66H1441.12V1370.22H1438.99V1372H1436.87C1436.87 1372.45 1436.87 1373.49 1436.87 1375.12V1375.56H1434.74V1379.12H1432.61V1380.9H1430.49V1382.68H1428.36V1386.24H1426.24V1388.02H1424.11V1389.8H1421.99V1393.36H1419.86V1395.14H1417.74V1396.92H1415.61V1398.69H1413.48V1400.47H1411.36V1402.25H1409.23V1404.03H1407.11V1405.81H1404.98V1407.59H1402.86V1409.37H1400.73V1411.15H1398.61V1412.93H1396.48V1414.71H1392.23V1416.49H1390.1V1418.27H1387.98V1420.05H1385.85V1421.83H1381.6V1423.61H1379.48V1425.39C1378.94 1425.39 1377.7 1425.39 1375.76 1425.39H1375.23V1427.17H1370.97V1428.95H1368.85V1430.73H1364.6V1432.51H1360.35V1434.29H1356.1V1436.06H1351.84V1437.84H1347.59V1439.62H1347.06H1341.75H1341.22V1441.4H1340.69H1335.37H1334.84V1443.18H1334.31H1328.99H1328.46V1444.96H1327.93H1320.49H1319.96V1446.74H1319.43H1309.86H1309.33V1448.52H1308.8H1288.61H1288.08V1450.3H1287.55H1275.86H1275.32V1448.52H1274.79H1254.6H1254.07V1446.74H1253.54H1243.97H1243.44V1444.96H1242.91H1235.47H1234.94V1443.18H1234.41H1229.09H1228.56V1441.4H1228.03H1222.72H1222.19V1439.62H1217.94V1437.84H1213.68V1436.06H1213.15H1207.84H1207.31V1434.29C1206.78 1434.29 1205.54 1434.29 1203.59 1434.29H1203.06V1432.51H1198.81V1430.73H1196.68V1428.95C1196.15 1428.95 1194.91 1428.95 1192.96 1428.95H1192.43V1427.17H1188.18V1425.39H1186.05V1423.61H1181.8V1421.83H1179.68V1420.05H1177.55V1418.27H1173.3V1416.49H1171.17V1414.71C1170.64 1414.71 1169.4 1414.71 1167.45 1414.71H1166.92V1412.93H1162.67V1411.15H1160.55V1409.37H1160.01H1154.7H1154.17V1407.59H1149.92V1405.81H1145.67V1404.03H1141.42V1402.25H1137.16V1400.47H1136.63H1131.32H1130.79V1398.69H1126.54V1396.92H1126.01H1118.57H1118.03V1395.14H1117.5H1112.19H1111.66V1393.36H1111.13H1101.56H1101.03V1391.58H1100.5H1086.68H1086.15V1389.8H1085.62H1046.3H1045.77V1391.58H1045.23H1031.42H1030.89V1393.36H1030.36H1018.67H1018.13V1395.14H1017.6H1012.29H1011.76V1396.92H1011.23H1003.79H1003.26V1398.69H999.004V1400.47H998.473H993.159H992.628V1402.25H988.377V1404.03H987.845H982.531H982V1405.81H977.749V1407.59H973.498V1409.37H969.247V1411.15C968.715 1411.15 967.476 1411.15 965.527 1411.15H964.996V1412.93H960.745V1414.71H958.619V1416.49H954.368V1418.27H952.242V1420.05H947.991V1421.83H945.866V1423.61H943.74V1425.39H939.489V1427.17H937.364V1428.95H935.238V1430.73H933.113V1432.51H930.987V1434.29H926.736V1436.06H924.61V1437.84H922.485V1439.62H920.359V1441.4H918.234V1443.18H916.108V1446.74H913.983V1448.52H911.857V1450.3H909.732V1452.08H907.606V1453.86H905.481V1455.64H903.355V1459.2H901.229V1460.98H899.104V1464.54H896.978V1466.32H894.853V1469.88H892.727V1471.65H890.602C890.602 1472.1 890.602 1473.14 890.602 1474.77V1475.21H888.476V1478.77H886.351V1480.55H884.225V1484.11H882.1V1487.67H879.974V1491.23H877.849V1491.67V1496.12V1496.57H875.723V1500.13H873.597V1500.57V1505.02V1505.47H871.472V1509.02H869.346V1509.47V1513.92V1514.36H867.221V1514.81V1519.26V1519.7H865.095V1523.26H862.97V1526.82H860.844V1530.38H858.719C858.719 1530.82 858.719 1531.86 858.719 1533.49V1533.94H856.593V1537.5H854.468V1539.28H852.342C852.342 1539.72 852.342 1540.76 852.342 1542.39V1542.84H850.216V1546.39H848.091V1548.17H845.965V1549.95H843.84V1551.73H841.714V1553.51H839.589V1557.07H837.463V1558.85H835.338V1560.63H833.212V1562.41H831.087V1564.19H828.961V1565.97H826.836V1567.75H824.71V1569.53H822.584V1571.31H818.333V1573.09H816.208V1574.87H814.082V1576.65H811.957V1578.43C811.425 1578.43 810.185 1578.43 808.237 1578.43H807.706V1580.2H803.455V1581.98H801.329V1583.76H797.078V1585.54H792.827V1587.32H792.295H786.982H786.45V1589.1H782.199V1590.88H781.668H776.354H775.823V1592.66H775.291H769.977H769.446V1594.44H768.915H761.475H760.944V1596.22H760.412H742.345H741.814V1598H741.282H729.592H729.061V1596.22H728.529H712.588H712.056V1594.44H711.525H704.086H703.554V1592.66H703.023H695.583H695.052V1590.88H690.801V1589.1H690.27H684.956H684.424V1587.32H680.173V1585.54H675.922V1583.76C675.391 1583.76 674.151 1583.76 672.202 1583.76H671.671V1581.98H667.42V1580.2H665.294V1578.43H661.043V1576.65H658.918V1574.87H654.667V1573.09H652.541V1571.31H648.29V1569.53H646.165V1567.75H644.039V1565.97H641.913V1564.19H639.788V1562.41H637.662V1560.63H635.537V1558.85H633.411V1555.29H631.286V1553.51H629.16V1551.73H627.035V1549.95H624.909V1546.39H622.784V1544.61H620.658V1541.06H618.532V1539.28H616.407V1535.72H614.281V1532.16H612.156V1528.6H610.03V1528.15V1521.93V1521.48H607.905V1519.7H605.779V1519.26V1513.03V1512.58H603.654V1509.02H601.528V1505.47H599.403V1505.02V1500.57V1500.13H597.277V1496.57H595.152V1496.12V1491.67V1491.23H593.026V1489.45H590.9V1485.89H588.775V1482.33H586.649C586.649 1481.89 586.649 1480.85 586.649 1479.22V1478.77H584.524V1475.21H582.398V1473.43H580.273C580.273 1472.99 580.273 1471.95 580.273 1470.32V1469.88H578.147V1466.32H576.022V1464.54H573.896V1462.76H571.771V1459.2H569.645V1457.42H567.52V1455.64H565.394V1452.08H563.268V1450.3H561.143V1448.52H559.017V1446.74H556.892V1444.96H554.766V1443.18H552.641V1441.4H550.515V1439.62H548.39V1437.84H546.264V1436.06H544.139V1434.29H542.013V1432.51H539.887V1430.73H537.762V1428.95H533.511V1427.17H531.385V1425.39H529.26V1423.61H527.134V1421.83H522.883V1420.05H520.758V1418.27H516.507V1416.49H514.381V1414.71C513.85 1414.71 512.61 1414.71 510.661 1414.71H510.13V1412.93H505.879V1411.15H503.753V1409.37H503.222H497.908H497.377V1407.59H493.126V1405.81H488.874V1404.03C488.343 1404.03 487.103 1404.03 485.155 1404.03H484.623V1402.25H480.372V1400.47H479.841H474.527H473.996V1398.69H473.464H468.15H467.619V1396.92H467.088H461.774H461.242V1395.14H460.711H453.272H452.74V1393.36H452.209H444.769H444.238V1391.58H443.707H429.891H429.359V1389.8H428.828H387.38H386.849V1391.58H386.317H372.501H371.97V1393.36H371.438H361.873H361.342V1395.14H360.811H353.371H352.84V1396.92H352.308H346.995H346.463V1398.69H345.932H340.618H340.087V1400.47H335.836V1402.25H335.304H329.99H329.459V1404.03H325.208V1405.81H320.957V1407.59H316.706V1409.37C316.174 1409.37 314.934 1409.37 312.986 1409.37H312.455V1411.15H308.203V1412.93H306.078V1414.71C305.547 1414.71 304.307 1414.71 302.358 1414.71H301.827V1416.49H297.576V1418.27H295.45V1420.05H293.325V1421.83H289.074V1423.61H286.948V1425.39H282.697V1427.17H280.571V1428.95H276.32V1430.73H272.069V1432.51H267.818V1434.29H263.567V1436.06H259.316V1437.84H255.065V1439.62H254.534H249.22H248.688V1441.4H244.437V1443.18H243.906H236.466H235.935V1444.96H235.404H227.964H227.433V1446.74H226.902H217.337H216.805V1448.52H216.274H198.207H197.675V1450.3H197.144H183.328H182.797V1448.52H182.265H162.073H161.541V1446.74H161.01H153.57H153.039V1444.96H152.508H145.068H144.537V1443.18H144.005H138.692H138.16V1441.4H137.629H132.315H131.784V1439.62H131.252H125.938H125.407V1437.84H121.156V1436.06H120.624H115.311H114.779V1434.29H110.528V1432.51C109.997 1432.51 108.757 1432.51 106.808 1432.51H106.277V1430.73H102.026V1428.95H99.9004V1427.17H95.6494V1425.39H93.5238V1423.61H89.2727V1421.83H87.1472V1420.05H85.0216V1418.27H80.7706V1416.49H78.645V1414.71H76.5195V1412.93H72.2684V1411.15H70.1429V1409.37H68.0173V1407.59H65.8918V1405.81H63.7662V1404.03H61.6407V1402.25H59.5152V1400.47H57.3896V1398.69H55.2641V1396.92H53.1385V1393.36H51.013V1391.58H48.8874V1389.8H46.7619V1388.02H44.6364V1384.46H42.5108V1382.68H40.3853V1380.9H38.2597V1377.34H36.1342V1375.56H34.0087C34.0087 1375.12 34.0087 1374.08 34.0087 1372.45V1372H31.8831V1368.44H29.7576V1366.66H27.632V1366.22V1361.77V1361.33H25.5065V1359.55H23.381V1355.99H21.2554V1355.54V1351.09V1350.65H19.1299V1347.09H17.0043V1346.64V1340.42V1339.97H14.8788V1336.41H12.7532V1335.97V1331.52V1331.07H10.6277V1330.63V1326.18V1325.73H8.50216V1322.18H6.37662V1321.73V1308.38V1307.94H4.25108V1304.38H2.12554V1303.94V1260.34V1259.89H0V1259.45V1251.44V1251H2.12554V1250.55V1230.09V1229.64H0V1229.2V1178.48V1178.04H2.12554V1177.59V1050.36V1049.91H0V1049.47V1045.02V1044.57H2.12554V1044.13V778.091V777.646H0V777.201V762.075V761.63H2.12554V761.185V696.233V695.788H0V692.229H2.12554V691.785V667.761V667.316H0V666.871V612.596V612.151H2.12554V611.707V562.77V562.325H4.25108V561.88V552.093V551.648H6.37662V551.203V528.959V528.514H8.50216V524.955H10.6277V524.511V516.503V516.058H12.7532V515.613V500.487V500.042H14.8788V496.483H17.0043V496.038V480.913V480.468H19.1299V478.688H21.2554V478.243V466.677V466.232H23.381V465.787V459.558V459.114H25.5065V455.555H27.632V455.11V445.322V444.878H29.7576V443.098H31.8831V442.653V434.645V434.2H34.0087V430.641H36.1342V427.082H38.2597V426.638V418.63V418.185H40.3853V416.405H42.5108V415.96V407.953V407.508H44.6364V403.949H46.7619V402.169H48.8874V401.724V393.717V393.272H51.013V391.492H53.1385V391.047V384.819V384.374H55.2641V382.595H57.3896V379.036H59.5152V378.591V374.142V373.697H61.6407V370.138H63.7662V369.693V363.465V363.02H65.8918V361.241H68.0173V357.682H70.1429V357.237V352.788V352.343H74.3939V351.898V345.67V345.225H76.5195V343.445H78.645C78.645 343.001 78.645 341.963 78.645 340.331V339.886H80.7706V336.327H82.8961V334.548H85.0216V334.103V327.875V327.43H87.1472V325.65H89.2727C89.2727 325.205 89.2727 324.167 89.2727 322.536V322.091H91.3983V318.532H93.5238V316.753H95.6494V313.194H97.7749V311.414H99.9004V310.969V306.521V306.076H102.026V304.296H104.152V302.517H106.277V302.072V297.623V297.178H108.403V295.399H110.528V291.84H112.654V290.06H114.779V288.281H116.905V284.722H119.03V282.942H121.156V279.383H123.281V277.604H125.407V274.045H127.532V270.486H129.658V268.706H131.784V265.147H136.035V261.588H138.16V258.029H140.286V256.249H142.411V252.69H144.537V250.911H146.662V249.131H148.788V247.352H150.913C150.913 246.907 150.913 245.869 150.913 244.238V243.793H153.039V240.234H157.29V236.675H159.416V234.895H161.541V233.116H163.667V231.336H165.792V229.557H167.918V225.998H170.043V224.218H172.169V222.439H174.294V218.88H176.42V217.1H178.545V215.321H180.671V213.541H182.797V211.762H184.922V208.203H189.173V204.644H193.424V201.085H195.55V199.305H197.675V197.526H199.801V195.746H201.926V193.967H204.052V192.187H206.177V190.408H208.303V188.628H210.429V186.849H212.554V185.069H214.68V181.51H216.805V179.731H218.931V177.951H221.056V176.171H223.182V174.392H225.307V172.612H229.558V170.833H231.684V169.053H233.81V167.274H235.935V165.494H238.061V163.715H240.186V161.935H242.312V160.156H244.437V158.376H246.563V156.597H250.814V153.038H255.065V151.258H257.19V149.479H259.316V147.699H261.442V145.92H263.567V144.14H267.818V142.361H269.944V140.581H272.069V138.802H276.32V137.022H278.446V135.243H280.571V133.463H282.697V131.684H284.823V129.904H286.948V128.125H289.074V126.345C289.605 126.345 290.845 126.345 292.793 126.345H293.325V124.566H297.576V122.786H299.701V121.007H301.827V119.227H303.952V117.448H308.203V115.668H310.329V113.889H312.455V112.109H316.706V110.33H318.831V108.55H323.082V106.771H325.208V104.991H327.333V103.212H331.584V101.432H333.71V99.6526H337.961V97.8731H340.087V96.0935C340.618 96.0935 341.858 96.0935 343.806 96.0935H344.338V94.314H348.589V92.5345H350.714V90.755H354.965V88.9755H357.091V87.196H357.622H362.936H363.468V85.4165H365.593V83.637H367.719V81.8575H368.25H373.564H374.095V80.078H376.221V78.2984H380.472V76.5189C381.003 76.5189 382.243 76.5189 384.192 76.5189H384.723V74.7394H388.974V72.9599H391.1V71.1804H393.225V69.4009H393.757H399.07H399.602V67.6214H401.727V65.8419H402.259H407.573H408.104V64.0624H412.355V62.2829H416.606V60.5033H417.137H422.451H422.983V58.7238H425.108V56.9443H425.64H430.953H431.485V55.1648H435.736V53.3853H437.861V51.6058H438.393H445.832H446.364V49.8263H448.489V48.0468H449.021H456.46H456.991V46.2673H461.242V44.4878H465.494V42.7082H466.025H473.464H473.996V40.9287H476.121V39.1492H476.653H484.092H484.623V37.3697H486.749V35.5902H491V33.8107H491.531H501.096H501.628V32.0312H503.753V30.2517H504.285H515.975H516.507V28.4722H520.758V26.6927H521.289H526.603H527.134V24.9131H527.666H537.231H537.762V23.1336H542.013V21.3541H542.544H552.109H552.641V19.5746H554.766V17.7951H555.298H566.988H567.52V16.0156H568.051H573.365H573.896V14.2361H578.147V12.4566H578.679H598.871H599.403V10.6771H601.528V8.89755H602.06H622.252H622.784V7.11804H623.315H628.629H629.16V5.33853H629.692H635.005H635.537V3.55902H636.068H669.014H669.545V1.77951H670.077H675.391H675.922V0Z" fill="url(#paint0_linear_2002_3)"/>
<defs>
<linearGradient id="paint0_linear_2002_3" x1="368.25" y1="50.2428" x2="1286" y2="1467.36" gradientUnits="userSpaceOnUse">
<stop stop-color="#0027A8"/>
<stop offset="1" stop-color="#0026FF"/>
</linearGradient>
</defs>
</svg>
